<?xml version="1.0" encoding="utf-8"?>
<!-- Generator: Adobe Illustrator 19.0.0, SVG Export Plug-In . SVG Version: 6.00 Build 0)  -->
<svg version="1.1" id="圖層_1" xmlns="http://www.w3.org/2000/svg" xmlns:xlink="http://www.w3.org/1999/xlink" x="0px" y="0px"
	 viewBox="0 0 65 52.6" enable-background="new 0 0 65 52.6" xml:space="preserve">
<g id="XMLID_1287_">
	<g id="XMLID_244_">
		<linearGradient id="XMLID_259_" gradientUnits="userSpaceOnUse" x1="23.3348" y1="41.4564" x2="23.3348" y2="-9.094947e-012">
			<stop  offset="0" style="stop-color:#2CB81D"/>
			<stop  offset="1" style="stop-color:#87E047"/>
		</linearGradient>
		<path id="XMLID_249_" fill="url(#XMLID_259_)" d="M24,34.9c0-0.9,0-1.8,0.1-2.8c0.3-1.8,0.9-3.6,1.7-5.2c1.3-2.4,3.1-4.4,5.3-6
			c1.9-1.4,3.9-2.4,6-3.1c1.8-0.6,3.6-1,5.5-1.2c1.1-0.1,2.3-0.2,3.4-0.1c0.5,0,0.5,0,0.4-0.4c-0.6-2.6-1.7-4.9-3.3-6.9
			c-1.6-2-3.5-3.7-5.6-5.1c-1.3-0.8-2.7-1.5-4.1-2.1c-1.8-0.7-3.7-1.2-5.6-1.5c-1.2-0.2-2.3-0.3-3.5-0.3c-1.1,0-2.1,0-3.2,0.1
			c-1,0.1-2,0.2-3,0.4C15.7,1,13.3,1.8,11,3C9,4,7.1,5.4,5.5,7c-1.4,1.4-2.6,3-3.6,4.8c-1.1,2.1-1.8,4.4-1.9,6.8
			c-0.1,0.9,0,1.8,0.1,2.8c0.1,1.2,0.4,2.5,0.8,3.6c1.1,3.2,3,5.8,5.5,8c0.5,0.5,1.1,0.9,1.7,1.4c0.6,0.4,0.8,1,0.6,1.7
			c-0.4,1.4-0.7,2.8-1.1,4.2c0,0.1-0.1,0.3-0.1,0.4c0,0.5,0.6,0.9,1.1,0.7c0.1-0.1,0.3-0.1,0.4-0.2c1.6-0.9,3.3-1.9,4.9-2.8
			c0.6-0.4,1.3-0.5,2-0.3c1.6,0.5,3.3,0.8,5,0.9c1.1,0.1,2.2,0.1,3.3,0.1c0.2,0,0.4,0,0.6,0c0-0.1,0-0.1-0.1-0.2
			C24.3,37.6,24.1,36.3,24,34.9z M31.3,10.2c1.7,0,3.1,1.4,3.1,3.1c0,1.7-1.4,3.1-3.1,3.1c-1.7,0-3.1-1.4-3.1-3.1
			C28.2,11.6,29.6,10.2,31.3,10.2z M15.7,16.4c-1.7,0-3.1-1.4-3.1-3.1c0-1.7,1.4-3.1,3.1-3.1c1.7,0,3.1,1.4,3.1,3.1
			C18.8,15,17.4,16.4,15.7,16.4z"/>
		<linearGradient id="XMLID_260_" gradientUnits="userSpaceOnUse" x1="45.419" y1="52.559" x2="45.419" y2="18.0171">
			<stop  offset="0" style="stop-color:#2CB81D"/>
			<stop  offset="1" style="stop-color:#87E047"/>
		</linearGradient>
		<path id="XMLID_245_" fill="url(#XMLID_260_)" d="M64.8,32.1c-0.3-1.8-0.9-3.4-1.8-5c-1-1.8-2.4-3.2-4-4.5c-1.8-1.5-3.8-2.5-6-3.3
			c-2.4-0.9-5-1.3-7.7-1.2c-1.2,0-2.5,0.1-3.9,0.3c-1.8,0.3-3.6,0.9-5.3,1.6c-2.1,0.9-4,2.2-5.6,3.8c-1.3,1.3-2.4,2.7-3.2,4.3
			c-1.2,2.4-1.7,5-1.4,7.7c0.1,1.1,0.4,2.3,0.8,3.3c0.9,2.4,2.4,4.5,4.3,6.2c1.6,1.5,3.5,2.6,5.5,3.5c1.9,0.8,3.9,1.4,6,1.6
			c1.2,0.1,2.3,0.2,3.5,0.2c1.9,0,3.7-0.3,5.5-0.8c0.2-0.1,0.5-0.1,0.7-0.2c0.5,0,0.9,0.1,1.3,0.4c1.2,0.7,2.3,1.3,3.5,2
			c0.3,0.2,0.5,0.3,0.8,0.4c0.4,0.2,0.8,0,0.9-0.4c0.1-0.2,0-0.4,0-0.5c-0.3-1.2-0.6-2.3-0.9-3.5c-0.1-0.6,0-1,0.5-1.4
			c0.2-0.2,0.4-0.3,0.6-0.5c1.8-1.4,3.2-3.1,4.3-5c1-1.8,1.6-3.8,1.8-5.9C65,34.2,65,33.1,64.8,32.1z M38.9,31.7
			c-1.4,0-2.6-1.2-2.6-2.6c0-1.4,1.2-2.6,2.6-2.6c1.4,0,2.6,1.1,2.6,2.6C41.5,30.7,40.2,31.7,38.9,31.7z M52.1,31.7
			c-1.5,0.1-2.7-1.1-2.8-2.6c0-1.4,1.1-2.6,2.5-2.6c1.4,0,2.6,1.1,2.6,2.6C54.6,30.4,53.4,31.6,52.1,31.7z"/>
	</g>
</g>
</svg>
