<?xml version="1.0" encoding="utf-8"?>
<!-- Generator: Adobe Illustrator 21.1.0, SVG Export Plug-In . SVG Version: 6.00 Build 0)  -->
<svg version="1.1" id="圖層_1" xmlns="http://www.w3.org/2000/svg" xmlns:xlink="http://www.w3.org/1999/xlink" x="0px" y="0px"
	 viewBox="0 0 40.7 26" style="enable-background:new 0 0 40.7 26;" xml:space="preserve">
<style type="text/css">
	.st0{display:none;}
	.st1{display:inline;}
	.st2{clip-path:url(#SVGID_2_);}
	.st3{fill:#01798A;}
	.st4{fill:#024381;}
	.st5{fill:#DD0228;}
	.st6{fill:#FFFFFF;}
</style>
<g id="bg" class="st0">
	<g id="XMLID_2_" class="st1">
		<g>
			<defs>
				<rect id="SVGID_1_" x="-575.2" y="135.5" width="1920" height="921"/>
			</defs>
			<clipPath id="SVGID_2_">
				<use xlink:href="#SVGID_1_"  style="overflow:visible;"/>
			</clipPath>
			<g id="XMLID_163_" class="st2">
				
					<image style="overflow:visible;enable-background:new    ;" width="2048" height="1152" id="XMLID_124_" xlink:href="76A04847.jpeg"  transform="matrix(1 0 0 1 -639.1891 -39.4754)">
				</image>
			</g>
		</g>
	</g>
</g>
<g id="content">
	<g>
		<path id="XMLID_110_" class="st3" d="M38.7,0h-10l0,0l0,0c-1.4,0-3.1,1.1-3.4,2.5l-4.7,21C20.2,24.9,21,26,22.4,26h10.5
			c1.3-0.1,2.7-1.2,3-2.5l4.7-21C41,1.1,40.1,0,38.7,0"/>
		<path id="XMLID_108_" class="st4" d="M20.5,23.5l4.7-21c0.3-1.4,2-2.5,3.4-2.5h-4h-7.2C16,0,14.3,1.1,14,2.5l-4.7,21
			C9,24.9,9.8,26,11.2,26h11.2C21,26,20.2,24.9,20.5,23.5"/>
		<path id="XMLID_107_" class="st5" d="M9.3,23.5l4.7-21C14.3,1.1,16,0,17.4,0H8.3C6.9,0,5.1,1.1,4.8,2.5l-4.7,21
			c0,0.1,0,0.3-0.1,0.4v0.4c0.1,1,0.9,1.7,2,1.7h9.3C9.8,26,9,24.9,9.3,23.5"/>
		<path id="XMLID_90_" class="st6" d="M17.7,15.3h0.2c0.2,0,0.3-0.1,0.3-0.2l0.5-0.7h1.2l-0.3,0.4H21l-0.2,0.7h-1.7
			c-0.2,0.3-0.4,0.4-0.7,0.4h-0.9L17.7,15.3 M17.5,16.3h3.2L20.5,17h-1.3L19,17.7h1.2L20,18.5h-1.2l-0.3,1.1c-0.1,0.2,0,0.3,0.3,0.2
			h1l-0.2,0.7h-1.9c-0.4,0-0.5-0.2-0.4-0.6l0.4-1.3h-0.8l0.2-0.7h0.8L18,17h-0.8L17.5,16.3L17.5,16.3z M22.6,14.4l-0.1,0.4
			c0,0,0.6-0.5,1.1-0.5h2l-0.8,2.8c-0.1,0.3-0.3,0.5-0.8,0.5h-2.3l-0.5,2c0,0.1,0,0.2,0.1,0.2h0.4l-0.2,0.6h-1.1
			c-0.4,0-0.6-0.1-0.5-0.4l1.5-5.6H22.6L22.6,14.4z M24.3,15.2h-1.8L22.2,16c0,0,0.3-0.2,0.8-0.2s1.1,0,1.1,0L24.3,15.2L24.3,15.2z
			 M23.6,17c0.1,0,0.2,0,0.2-0.2l0.1-0.4h-1.8L22,17H23.6z M22.4,17.9h1v0.4h0.3c0.1,0,0.2,0,0.2-0.1l0.1-0.3h0.9l-0.1,0.4
			c-0.1,0.4-0.4,0.5-0.8,0.6h-0.6v0.8c0,0.1,0.1,0.2,0.3,0.2h0.5L24,20.5h-1.2c-0.3,0-0.5-0.1-0.5-0.5L22.4,17.9 M9.8,10.7
			c-0.1,0.7-0.5,1.2-1,1.6c-0.5,0.4-1.1,0.6-1.9,0.6c-0.7,0-1.3-0.2-1.6-0.6c-0.2-0.3-0.4-0.6-0.4-1c0-0.2,0-0.4,0.1-0.6l0.8-4.1
			h1.3l-0.8,4c0,0.1,0,0.2,0,0.3c0,0.2,0,0.4,0.2,0.5c0.2,0.2,0.4,0.3,0.7,0.3c0.4,0,0.7-0.1,1-0.3s0.4-0.5,0.5-0.8l0.8-4h1.3
			L9.8,10.7 M15.2,9.1h1l-0.8,3.6h-1L15.2,9.1 M15.5,7.8h1l-0.2,0.9h-1L15.5,7.8 M17,12.5c-0.3-0.2-0.4-0.6-0.4-1c0-0.1,0-0.2,0-0.2
			c0-0.1,0-0.2,0-0.3c0.1-0.6,0.4-1.1,0.8-1.4C17.9,9.2,18.3,9,18.9,9c0.4,0,0.8,0.1,1.1,0.4c0.3,0.3,0.4,0.6,0.4,1
			c0,0.1,0,0.2,0,0.3s0,0.2,0,0.3c-0.1,0.6-0.4,1-0.8,1.4c-0.4,0.3-0.9,0.5-1.4,0.5S17.3,12.7,17,12.5 M19,11.8
			c0.2-0.2,0.3-0.5,0.4-0.9c0-0.1,0-0.1,0-0.2c0-0.1,0-0.1,0-0.2c0-0.2-0.1-0.4-0.2-0.5s-0.3-0.2-0.5-0.2c-0.3,0-0.5,0.1-0.7,0.3
			s-0.3,0.5-0.4,0.9c0,0.1,0,0.1,0,0.2c0,0.1,0,0.1,0,0.2c0,0.2,0.1,0.4,0.2,0.5s0.3,0.2,0.5,0.2C18.6,12.1,18.8,12,19,11.8"/>
		<path id="XMLID_58_" class="st6" d="M26.8,15.3l0.2-0.8h1.2l-0.1,0.3c0,0,0.6-0.3,1.1-0.3h1.5l-0.2,0.8h-0.2l-1.1,4h0.2l-0.2,0.8
			H29l-0.1,0.3h-1.2l0.1-0.3h-2.3l0.2-0.8h0.2l1.1-4L26.8,15.3 M28.1,15.3l-0.3,1.1c0,0,0.5-0.2,1-0.3c0.1-0.4,0.2-0.8,0.2-0.8H28.1
			z M27.7,16.9L27.4,18c0,0,0.6-0.3,1-0.3c0.1-0.4,0.2-0.8,0.2-0.8L27.7,16.9L27.7,16.9z M27.9,19.3l0.2-0.8h-0.9L27,19.3H27.9z
			 M30.8,14.4H32v0.4c0,0.1,0.1,0.2,0.2,0.2h0.2l-0.2,0.7h-0.8c-0.3,0-0.5-0.1-0.5-0.4L30.8,14.4z M30.5,15.9h3.7L34,16.7h-1.2
			l-0.2,0.7h1.2l-0.2,0.8h-1.3L32,18.6h0.6l0.1,0.9c0,0.1,0.1,0.1,0.2,0.1h0.2L33,20.4h-0.7c-0.4,0-0.6-0.1-0.6-0.4l-0.2-0.8
			l-0.6,0.9c-0.1,0.2-0.4,0.4-0.6,0.3h-1.1l0.2-0.7h0.3c0.1,0,0.3-0.1,0.4-0.2l0.9-1.3h-1.2l0.2-0.8h1.3l0.2-0.7h-1.3L30.5,15.9
			 M11,9.1h0.9l-0.1,0.5l0.1-0.1C12.2,9.2,12.6,9,13,9s0.7,0.1,0.8,0.3c0.2,0.2,0.2,0.5,0.1,0.9l-0.5,2.5h-0.9l0.4-2.2
			c0-0.2,0-0.4,0-0.5c-0.1-0.1-0.2-0.2-0.4-0.2s-0.4,0.1-0.6,0.2c-0.2,0.1-0.3,0.4-0.3,0.6l-0.4,2.1h-0.9L11,9.1 M21.3,9.1h0.9
			l-0.1,0.5l0.1-0.1C22.5,9.2,22.9,9,23.3,9s0.7,0.1,0.8,0.3c0.2,0.2,0.2,0.5,0.1,0.9l-0.5,2.5h-0.9l0.4-2.2c0-0.2,0-0.4,0-0.5
			c-0.1-0.1-0.2-0.2-0.4-0.2c-0.2,0-0.4,0.1-0.6,0.2c-0.2,0.1-0.3,0.4-0.3,0.6l-0.4,2.1h-0.9L21.3,9.1 M25.8,6.9h2.6
			c0.5,0,0.9,0.1,1.2,0.3c0.3,0.2,0.4,0.6,0.4,1l0,0c0,0.1,0,0.2,0,0.3s0,0.2-0.1,0.3c-0.1,0.6-0.4,1-0.8,1.4
			c-0.4,0.3-0.9,0.5-1.5,0.5h-1.4l-0.4,2.1h-1.2L25.8,6.9 M26.4,9.6h1.2c0.3,0,0.5-0.1,0.7-0.2c0.2-0.1,0.3-0.4,0.4-0.6
			c0-0.1,0-0.1,0-0.1V8.6c0-0.2-0.1-0.4-0.2-0.5C28.4,8,28.1,8,27.8,8h-1L26.4,9.6 M35.4,13.5c-0.4,0.8-0.7,1.3-1,1.5
			c-0.2,0.2-0.6,0.7-1.7,0.7l0.1-0.6c0.9-0.3,1.3-1.5,1.6-2l-0.3-3.9h0.7h0.6l0.1,2.5l1.1-2.5h1.1L35.4,13.5 M32.4,9.4L32,9.7
			c-0.4-0.3-0.8-0.6-1.6-0.2c-1.1,0.5-1.9,4.3,1,3l0.2,0.2h1.1l0.8-3.4L32.4,9.4 M31.7,11.3c-0.2,0.5-0.6,0.9-0.9,0.8
			c-0.3-0.1-0.4-0.6-0.3-1.2c0.2-0.5,0.6-0.9,0.9-0.8C31.8,10.2,31.9,10.7,31.7,11.3"/>
	</g>
</g>
</svg>
